<svg xmlns="http://www.w3.org/2000/svg" viewBox="0 0 140 141" width="140" height="141">
	<style>
		tspan { white-space:pre }
		.shp0 { fill: #000000;stroke: #000000;stroke-width: 0.189 } 
		.shp1 { fill: #004d98 } 
		.shp2 { fill: #a50044 } 
		.shp3 { fill: #ffffff } 
		.shp4 { fill: #ffed02 } 
		.shp5 { fill: #db0030 } 
		.shp6 { fill: #edbb00;stroke: #deb405;stroke-width: 0.178 } 
		.shp7 { fill: none;stroke: #000000;stroke-width: 0.757 } 
		.shp8 { fill: #edbb00;stroke: #000000;stroke-width: 0.761 } 
		.shp9 { fill: none;stroke: #000000;stroke-width: 0.662 } 
		.shp10 { fill: #000000 } 
		.shp11 { fill: #000000;stroke: #000000;stroke-width: 0.038 } 
	</style>
	<g id="layer1">
		<g id="g2427">
			<g id="g2263">
				<g id="g2279">
					<path id="path2239" fill-rule="evenodd" class="shp0" d="M13.53 5.17C23.01 9.33 38.56 8.83 49 0.96C63.59 11.65 77.63 10.55 91.02 0.96C99.95 7.41 113.69 10.17 126.59 5.3L132.37 13.33C117.29 33.48 122.88 52.74 138.42 69.69L131.89 76.31C133.37 119.76 99.72 130.13 80.39 131.21L70 139.71L59.69 131.34C25.19 128.36 6.97 110.16 8.1 76.42L1.39 69.64C14.5 55.45 24.36 36.06 7.51 13.33L13.53 5.17Z" />
					<path id="path5105" fill-rule="evenodd" class="shp1" d="M14.31 75.54L125.33 75.54C128.25 106.26 108.73 122.86 79.05 124.49L60.19 124.54C31.79 122.5 10.64 107.5 14.31 75.54Z" />
					<path id="rect6076" class="shp2" d="M62.17 75.91L77.9 75.91L77.9 125L62.17 125L62.17 75.91Z" />
					<g id="g6100">
						<path id="rect6088" class="shp2" d="M30.87 75.91L46.6 75.91L46.6 119.79L30.87 119.79L30.87 75.91Z" />
						<path id="rect6092" class="shp2" d="M36.35 117.54L46.6 117.54L46.6 122.06L36.35 122.06L36.35 117.54Z" />
					</g>
					<g id="g6096">
						<path id="rect6090" class="shp2" d="M93.29 75.91L109.02 75.91L109.02 119.79L93.29 119.79L93.29 75.91Z" />
						<path id="rect6094" class="shp2" d="M93.29 117.54L103.53 117.54L103.53 122.06L93.29 122.06L93.29 117.54Z" />
					</g>
					<path id="path4130" fill-rule="evenodd" class="shp3" d="M69.52 15.32L69.52 58.92L16.53 59.3L21.99 38.32L15.19 13.21L48.73 8.9L69.52 15.32Z" />
					<path id="path2187" fill-rule="evenodd" class="shp4" d="M70.29 15.32L70.29 58.92L123.28 59.3L117.82 38.32L124.63 13.21L91.08 8.9L70.29 15.32Z" />
					<path id="rect2169" class="shp5" d="M38.9 10.14L54.09 10.14L54.09 58.65L38.9 58.65L38.9 10.14Z" />
					<path id="rect3143" class="shp5" d="M69.52 28.23L69.52 43.43L22.24 43.43L22.24 28.23L69.52 28.23Z" />
					<g id="g2174">
						<path id="rect4118" class="shp5" d="M75.04 13.58L80.66 13.58L80.66 58.33L75.04 58.33L75.04 13.58Z" />
						<path id="rect4120" class="shp5" d="M85.71 10.37L91.33 10.37L91.33 58.44L85.71 58.44L85.71 10.37Z" />
						<path id="rect4122" class="shp5" d="M96.45 13.08L102.07 13.08L102.07 58.54L96.45 58.54L96.45 13.08Z" />
						<path id="rect4124" class="shp5" d="M107.09 14.75L112.71 14.75L112.71 58.5L107.09 58.5L107.09 14.75Z" />
					</g>
					<path id="path4181" fill-rule="evenodd" class="shp6" d="M48.91 4.41C62.59 14.44 78.54 13.51 91.1 4.51C99.47 10.56 113.39 12.78 125.55 8.78L128.89 13.34C115.14 32.36 120.05 53.97 134.27 69.75L128.66 75.56C132.32 117.36 98.38 128.21 79.03 128.55L70.04 136.19L61.03 128.66C27.79 126.74 8.89 108 11.15 75.6L5.57 69.7C17.68 56.46 26.46 34.83 11.18 13.34L14.75 8.75C23.64 12.34 39.12 11.59 48.91 4.41ZM48.87 10.69C38.76 16.19 28.63 16.55 18.25 15.05C26.67 29.37 25.44 44.1 20.07 56.91L119.89 56.97C113.51 42.64 114.29 27.79 121.49 15.33C107.11 16.59 98.76 15.26 91.21 10.57C76.68 18.89 62.58 18.74 48.87 10.69ZM60.76 123.26L78.94 123.22C107.56 121.64 126.38 105.65 123.57 76.03L16.53 76.03C12.99 106.84 33.38 121.3 60.76 123.26Z" />
					<path id="path7096" fill-rule="evenodd" class="shp7" d="M18.14 15.2C26.55 29.52 25.32 44.26 19.95 57.07L119.77 57.13C113.39 42.79 114.17 27.95 121.37 15.49C106.99 16.75 98.65 15.41 91.1 10.73C76.56 19.04 62.46 18.89 48.75 10.85C38.64 16.35 28.51 16.71 18.14 15.2Z" />
					<path id="path4112" fill-rule="evenodd" class="shp7" d="M16.53 76.03L123.56 76.03C126.38 105.65 107.56 121.65 78.94 123.22L60.76 123.26C33.38 121.3 12.98 106.84 16.53 76.03Z" />
					<path id="path4134" fill-rule="evenodd" class="shp7" d="M69.94 16.7L69.94 57.15" />
					<g id="g6097">
						<path id="path2185" class="shp8" d="M84.7 99.11C84.7 102.97 83.17 106.67 80.44 109.4C77.71 112.13 74.01 113.66 70.15 113.66C66.29 113.66 62.59 112.13 59.86 109.4C57.13 106.67 55.6 102.97 55.6 99.11C55.6 95.25 57.13 91.55 59.86 88.82C62.59 86.09 66.29 84.55 70.15 84.55C74.01 84.55 77.71 86.09 80.44 88.82C83.17 91.55 84.7 95.25 84.7 99.11L84.7 99.11Z" />
						<g id="g4131">
							<path id="path3158" fill-rule="evenodd" class="shp9" d="M61.75 87.26C60.05 93.45 59 99.54 63.9 102.47C67.33 104.52 69.64 100.34 70.28 98.73" />
							<path id="path3160" fill-rule="evenodd" class="shp9" d="M56.68 104.98C59.55 104.85 61.05 104.61 62.89 101.81" />
						</g>
						<path id="path4141" fill-rule="evenodd" class="shp9" d="M70.16 98.84C73.04 97.07 75.6 97.92 76.79 102.35C79.59 101.23 82.29 103.39 83 105.57" />
						<path id="path4143" fill-rule="evenodd" class="shp9" d="M76.85 102.35C74.72 107.49 69.13 109.86 61.28 110.65" />
						<path id="path2191" fill-rule="evenodd" class="shp9" d="M70.17 99.05C68.4 97.43 65.68 95.58 69.64 90.82C67.96 88.69 67.5 86.61 69.7 84.64" />
						<path id="path2193" fill-rule="evenodd" class="shp9" d="M84.63 99.98C82.05 95.41 76.03 89.08 69.64 90.76" />
					</g>
				</g>
				<path id="rect2194" class="shp10" d="M49.8 59.57L49.8 59.62L47.16 59.62L47.16 64.76L47.16 67.67L47.16 73.37L50.01 73.37L50.01 67.67L54.09 67.67L54.09 64.76L50.01 64.76L50.01 62.53L57.05 62.53L57.05 59.57L49.8 59.57Z" />
				<path id="path3176" fill-rule="evenodd" class="shp11" d="M71.43 63.88L73.99 62.54C72.36 58.92 65.72 57.89 63.54 62.54C61.29 68.08 63.68 73.23 68.04 73.73C70.81 74.14 73 72.78 73.94 70.37L71.4 68.92C70.73 70.6 68.15 71.76 66.19 68.95C65.58 67.69 65.43 65.76 66.1 63.88C67.71 61.66 70.07 61.9 71.43 63.88Z" />
				<path id="path5116" fill-rule="evenodd" class="shp0" d="M88.5 59.63C92.49 60.43 92.74 64.2 90.74 65.96C94.52 69.08 91.3 73.11 88.84 73.45L81.29 73.48L81.23 59.6L88.5 59.63ZM84.14 64.67L87.95 64.67C89.06 64.4 89.55 62.81 87.9 62.34L84.14 62.34L84.14 64.67ZM84.2 70.6L88.18 70.63C89.64 70.25 90.08 68.02 88.12 67.43L84.17 67.38L84.2 70.6Z" />
			</g>
		</g>
	</g>
</svg>